<?xml version="1.0" encoding="utf-8"?>
<!-- Generator: Adobe Illustrator 21.1.0, SVG Export Plug-In . SVG Version: 6.00 Build 0)  -->
<svg version="1.1" id="图层_1" xmlns="http://www.w3.org/2000/svg" xmlns:xlink="http://www.w3.org/1999/xlink" x="0px" y="0px"
	 viewBox="0 0 1361 1335.9" style="enable-background:new 0 0 1361 1335.9;" xml:space="preserve">
<style type="text/css">
	.st0{opacity:0.5;}
	.st1{opacity:0.25;fill:#CFDAE6;enable-background:new    ;}
	.st2{opacity:0.6;fill:#CFDAE6;enable-background:new    ;}
	.st3{opacity:0.45;fill:#CFDAE6;enable-background:new    ;}
	.st4{fill:none;stroke:#CFDAE6;stroke-width:1.7391;stroke-linecap:round;stroke-linejoin:round;}
	
		.st5{opacity:0.7;fill:none;stroke:#E0B4B7;stroke-width:0.7027;stroke-linecap:round;stroke-linejoin:round;stroke-dasharray:1.4054,2.108;enable-background:new    ;}
	.st6{fill:none;stroke:#BACAD9;stroke-width:0.7027;stroke-linecap:round;stroke-linejoin:round;stroke-dasharray:1.4054,2.108;}
	.st7{fill:#CFDAE6;}
	.st8{opacity:0.3;fill:#CFDAE6;enable-background:new    ;}
	.st9{opacity:0.4;fill:none;stroke:#CFDAE6;enable-background:new    ;}
	.st10{opacity:0.5;fill:#BACAD9;enable-background:new    ;}
	.st11{fill:#BACAD9;}
	.st12{opacity:0.45;}
	.st13{fill:#E6A1A6;}
	.st14{opacity:0.35;fill:#E0B4B7;enable-background:new    ;}
	.st15{opacity:0.8;fill:none;stroke:#CFDAE6;enable-background:new    ;}
	.st16{fill:none;stroke:#CFDAE6;stroke-width:0.9412;}
	.st17{opacity:0.45;fill:#BACAD9;enable-background:new    ;}
	.st18{fill:#F7E1AD;}
	.st19{fill:none;stroke:#BACAD9;stroke-width:1.1667;}
	.st20{fill:none;stroke:#CFDAE6;stroke-width:1.1667;}
	.st21{opacity:0.6;fill:none;stroke:#E0B4B7;stroke-width:1.1667;enable-background:new    ;}
	.st22{fill:#C1D1E0;}
	.st23{fill:#D1DEED;fill-opacity:0.6;}
	.st24{fill:#E0B4B7;}
</style>
<g id="Group-18" transform="translate(74.901416, 569.699158) rotate(-7.000000) translate(-74.901416, -569.699158) translate(4.901416, 525.199158)" class="st0">
	
		<ellipse id="Oval-11" transform="matrix(-1 2.855981e-06 -2.855981e-06 -1 125.3733 46.5832)" class="st1" cx="62.7" cy="23.3" rx="21.8" ry="21.8"/>
	
		<ellipse id="Oval-3" transform="matrix(-1 2.855981e-06 -2.855981e-06 -1 10.1984 9.3804)" class="st2" cx="5.1" cy="4.7" rx="5.2" ry="5.2"/>
	<path id="Oval-3-Copy" class="st3" d="M37.2,79.2c5.8,0,10.4-4.7,10.4-10.4c0-5.8-4.7-10.4-10.4-10.4c-5.8,0-10.4,4.7-10.4,10.4
		C26.8,74.5,31.5,79.2,37.2,79.2z"/>
	<path id="Path-12" class="st4" d="M63.4,24l54.9-16.6"/>
	<path id="Path-16" class="st5" d="M41.3,17.3L6.8,5.4"/>
	<path id="Path-15" class="st6" d="M63,24.3L42.8,60.1"/>
	
		<g id="Group-17" transform="translate(126.850922, 13.543654) rotate(30.000000) translate(-126.850922, -13.543654) translate(117.285705, 4.381889)">
		
			<ellipse id="Oval-4" transform="matrix(3.050101e-06 1 -1 3.050101e-06 5.4018 -2.1527)" class="st3" cx="3.8" cy="1.6" rx="9.1" ry="9.1"/>
		<path id="Oval-4_1_" class="st7" d="M-5.4,1.6c0,5,4.1,9.1,9.1,9.1c5,0,9.1-4.1,9.1-9.1L-5.4,1.6z"/>
	</g>
</g>
<g id="Group-18_1_" transform="translate(74.901416, 569.699158) rotate(-7.000000) translate(-74.901416, -569.699158) translate(4.901416, 525.199158)" class="st0">
	
		<ellipse id="Oval-11_1_" transform="matrix(-1 2.855981e-06 -2.855981e-06 -1 1933.0182 1313.3949)" class="st1" cx="966.5" cy="656.7" rx="21.8" ry="21.8"/>
	
		<ellipse id="Oval-3_1_" transform="matrix(-1 2.855981e-06 -2.855981e-06 -1 1817.8433 1276.192)" class="st2" cx="908.9" cy="638.1" rx="5.2" ry="5.2"/>
	<path id="Oval-3-Copy_1_" class="st3" d="M941.1,712.6c5.8,0,10.4-4.7,10.4-10.4c0-5.8-4.7-10.4-10.4-10.4
		c-5.8,0-10.4,4.7-10.4,10.4C930.6,707.9,935.3,712.6,941.1,712.6z"/>
	<path id="Path-12_1_" class="st4" d="M967.2,657.4l54.9-16.6"/>
	<path id="Path-16_1_" class="st5" d="M945.1,650.7l-34.4-11.9"/>
	<path id="Path-15_1_" class="st6" d="M966.9,657.8l-20.3,35.8"/>
	
		<g id="Group-17_3_" transform="translate(126.850922, 13.543654) rotate(30.000000) translate(-126.850922, -13.543654) translate(117.285705, 4.381889)">
		
			<ellipse id="Oval-4_7_" transform="matrix(3.050101e-06 1 -1 3.050101e-06 1201.4705 -1004.9537)" class="st3" cx="1103.2" cy="98.3" rx="9.1" ry="9.1"/>
		<path id="Oval-4_6_" class="st7" d="M1094.1,98.3c0,5,4.1,9.1,9.1,9.1c5,0,9.1-4.1,9.1-9.1L1094.1,98.3z"/>
	</g>
</g>
<g id="Group-14" transform="translate(216.294700, 123.725600) rotate(-5.000000) translate(-216.294700, -123.725600) translate(106.294700, 35.225600)" class="st0">
	
		<ellipse id="Oval-2" transform="matrix(-1 2.304968e-06 -2.304968e-06 -1 55.8193 40.0003)" class="st1" cx="27.9" cy="20" rx="29.1" ry="29.1"/>
	
		<ellipse id="Oval-2_1_" transform="matrix(-1 2.304968e-06 -2.304968e-06 -1 55.8193 40.0003)" class="st8" cx="27.9" cy="20" rx="21.6" ry="21.6"/>
	
		<ellipse id="Oval-2-Copy" transform="matrix(-1 2.304968e-06 -2.304968e-06 -1 355.6234 258.0121)" class="st9" cx="177.8" cy="129" rx="23.7" ry="23.7"/>
	
		<ellipse id="Oval-2_2_" transform="matrix(-1 2.304968e-06 -2.304968e-06 -1 55.8193 40.0003)" class="st10" cx="27.9" cy="20" rx="10.8" ry="10.8"/>
	<path id="Oval-2_3_" class="st11" d="M27.9,30.8l0-21.6C22,9.2,17.1,14,17.1,20C17.1,26,22,30.8,27.9,30.8z"/>
	<g id="Group-9" transform="translate(172.000000, 131.000000)" class="st12">
		
			<ellipse id="Oval-2-Copy-2" transform="matrix(-1 2.304968e-06 -2.304968e-06 -1 11.6231 -3.9875)" class="st13" cx="5.8" cy="-2" rx="6.5" ry="6.5"/>
		<path id="Oval-2-Copy-2_1_" class="st13" d="M5.8,4.5C2.2,4.5-0.7,1.6-0.7-2c0-3.6,2.9-6.5,6.5-6.5L5.8,4.5z"/>
	</g>
	
		<ellipse id="Oval-10" transform="matrix(-1 2.304968e-06 -2.304968e-06 -1 434.3488 259.0913)" class="st7" cx="217.2" cy="129.5" rx="1.6" ry="1.6"/>
	
		<ellipse id="Oval-10-Copy-2" transform="matrix(-1 2.304968e-06 -2.304968e-06 -1 356.7019 332.4817)" class="st14" cx="178.4" cy="166.2" rx="1.6" ry="1.6"/>
	
		<ellipse id="Oval-10-Copy" transform="matrix(-1 2.304968e-06 -2.304968e-06 -1 357.7802 186.7805)" class="st14" cx="178.9" cy="93.4" rx="2.2" ry="2.2"/>
	<path id="Path-11" class="st15" d="M27.8,20.8l142.2,102.9"/>
</g>
<g id="Group-14_1_" transform="translate(216.294700, 123.725600) rotate(-5.000000) translate(-216.294700, -123.725600) translate(106.294700, 35.225600)" class="st0">
	
		<ellipse id="Oval-2_7_" transform="matrix(-0.2716 0.9624 -0.9624 -0.2716 1368.5867 754.1195)" class="st1" cx="398.9" cy="895" rx="18" ry="18"/>
	
		<ellipse id="Oval-2_6_" transform="matrix(-0.2716 0.9624 -0.9624 -0.2716 1368.5867 754.1195)" class="st8" cx="398.9" cy="895" rx="13.3" ry="13.3"/>
	
		<ellipse id="Oval-2-Copy_1_" transform="matrix(-0.2716 0.9624 -0.9624 -0.2716 1414.8057 577.447)" class="st9" cx="488.9" cy="824.1" rx="14.7" ry="14.7"/>
	
		<ellipse id="Oval-2_5_" transform="matrix(-0.2716 0.9624 -0.9624 -0.2716 1368.5867 754.1195)" class="st10" cx="398.9" cy="895" rx="6.7" ry="6.7"/>
	<path id="Oval-2_4_" class="st11" d="M405.3,896.8l-12.8-3.6c-1,3.5,1.1,7.2,4.6,8.2C400.6,902.4,404.3,900.3,405.3,896.8z"/>
	<g id="Group-9_1_" transform="translate(172.000000, 131.000000)" class="st12">
		
			<ellipse id="Oval-2-Copy-2_3_" transform="matrix(-0.2716 0.9624 -0.9624 -0.2716 1070.0192 576.4078)" class="st13" cx="316.9" cy="693.1" rx="4" ry="4"/>
		<path id="Oval-2-Copy-2_2_" class="st13" d="M320.7,694.2c-0.6,2.1-2.8,3.4-4.9,2.8c-2.1-0.6-3.4-2.8-2.8-4.9L320.7,694.2z"/>
	</g>
	
		<ellipse id="Oval-10_1_" transform="matrix(-0.2716 0.9624 -0.9624 -0.2716 1401.1726 541.1347)" class="st7" cx="495.8" cy="800.8" rx="1" ry="1"/>
	
		<ellipse id="Oval-10-Copy-2_1_" transform="matrix(-0.2716 0.9624 -0.9624 -0.2716 1448.7782 563.5878)" class="st14" cx="511.1" cy="830.1" rx="1" ry="1"/>
	
		<ellipse id="Oval-10-Copy_1_" transform="matrix(-0.2716 0.9624 -0.9624 -0.2716 1381.738 589.2408)" class="st14" cx="467.9" cy="817.5" rx="1.3" ry="1.3"/>
	<path id="Path-11_1_" class="st15" d="M399.4,895.2l85-67.3"/>
</g>
<g id="Group-10" transform="translate(1054.100635, 36.659317) rotate(-11.000000) translate(-1054.100635, -36.659317) translate(1026.600635, 4.659317)" class="st0">
	
		<ellipse id="Oval-7" transform="matrix(-1 2.500077e-06 -2.500077e-06 -1 87.1352 45.5674)" class="st16" cx="43.6" cy="22.8" rx="11.2" ry="11.3"/>
	<g id="Group-12" transform="translate(34.596774, 23.111111)">
		
			<ellipse id="Oval-7_1_" transform="matrix(-1 2.500077e-06 -2.500077e-06 -1 17.8788 -0.6548)" class="st17" cx="8.9" cy="-0.3" rx="8.5" ry="8.6"/>
		<path id="Oval-7_2_" class="st11" d="M8.9,8.2c4.7,0,8.5-3.8,8.5-8.6s-3.8-8.6-8.5-8.6V8.2z"/>
	</g>
	<path id="Path-2" class="st16" d="M34.4,15.6L5.5-4.4"/>
	
		<ellipse id="Oval" transform="matrix(-1 2.500077e-06 -2.500077e-06 -1 6.0335 -11.8443)" class="st16" cx="3" cy="-5.9" rx="3.3" ry="3.3"/>
	
		<ellipse id="Oval-Copy" transform="matrix(-1 2.500077e-06 -2.500077e-06 -1 5.1014 103.9204)" class="st18" cx="2.6" cy="52" rx="2.8" ry="2.8"/>
	<path id="Path-10" class="st16" d="M34.4,30.1L4.8,50.6"/>
</g>
<g id="Group-19" transform="translate(1282.537219, 446.502867) rotate(-10.000000) translate(-1282.537219, -446.502867) translate(1142.537219, 327.502867)" class="st0">
	
		<g id="Group-17_1_" transform="translate(141.333539, 104.502742) rotate(275.000000) translate(-141.333539, -104.502742) translate(129.333539, 92.502742)">
		
			<ellipse id="Oval-4_2_" transform="matrix(0.9962 -8.715574e-02 8.715574e-02 0.9962 -0.8324 1.8532)" class="st17" cx="20.8" cy="10.5" rx="11.7" ry="11.7"/>
		<path id="Oval-4_3_" class="st11" d="M9.1,10.5c0,6.4,5.2,11.7,11.7,11.7c6.4,0,11.7-5.2,11.7-11.7L9.1,10.5z"/>
	</g>
	
		<ellipse id="Oval-5-Copy-6" transform="matrix(0.9848 -0.1736 0.1736 0.9848 -10.5347 36.1667)" class="st7" cx="201.4" cy="78.3" rx="5.8" ry="5.8"/>
	<path id="Path-17" class="st19" d="M143.1,79.6l11.6-71.2"/>
	<path id="Path-18" class="st19" d="M17.1,28.1l110,60.3"/>
	<polyline id="Path-19" class="st20" points="143.5,111.1 174.5,222.4 38.1,138.3 126,101.6 	"/>
	<path id="Path-20" class="st21" d="M159.4,90.5L195,80"/>
	<path id="Path-24" class="st19" d="M204.9,72.9l33.4-46"/>
	<path id="Path-25" class="st20" d="M266.3,123l-59.6-41.8"/>
	
		<ellipse id="Oval-5" transform="matrix(0.9848 -0.1736 0.1736 0.9848 2.4577 27.1707)" class="st22" cx="156.5" cy="-0.5" rx="8.8" ry="8.8"/>
	
		<ellipse id="Oval-5-Copy-3" transform="matrix(0.9848 -0.1736 0.1736 0.9848 -23.6432 8.836)" class="st22" cx="38.7" cy="139.5" rx="5.3" ry="5.3"/>
	
		<ellipse id="Oval-5-Copy-2" transform="matrix(0.9848 -0.1736 0.1736 0.9848 -4.0477 1.814)" class="st23" cx="8.3" cy="24" rx="8.8" ry="8.8"/>
	
		<ellipse id="Oval-5-Copy-5" transform="matrix(0.9848 -0.1736 0.1736 0.9848 -36.1559 33.8152)" class="st24" cx="175.2" cy="223.5" rx="5.3" ry="5.3"/>
</g>
<g id="Group-19_1_" transform="translate(1282.537219, 446.502867) rotate(-10.000000) translate(-1282.537219, -446.502867) translate(1142.537219, 327.502867)" class="st0">
	
		<g id="Group-17_2_" transform="translate(141.333539, 104.502742) rotate(275.000000) translate(-141.333539, -104.502742) translate(129.333539, 92.502742)">
		
			<ellipse id="Oval-4_5_" transform="matrix(0.6428 -0.766 0.766 0.6428 470.7014 -897.5934)" class="st17" cx="-727.1" cy="-953.5" rx="11.7" ry="11.7"/>
		<path id="Oval-4_4_" class="st11" d="M-735.3-961.8c-4.6,4.6-4.6,11.9,0,16.5c4.6,4.6,11.9,4.6,16.5,0L-735.3-961.8z"/>
	</g>
	
		<ellipse id="Oval-5-Copy-6_1_" transform="matrix(0.5736 -0.8192 0.8192 0.5736 -998.8099 -343.8244)" class="st7" cx="-829.6" cy="787.4" rx="5.8" ry="5.8"/>
	<path id="Path-17_1_" class="st19" d="M-871.8,747.1l58.5-42.2"/>
	<path id="Path-18_1_" class="st19" d="M-924.5,621.6l35.1,120.4"/>
	<polyline id="Path-19_1_" class="st20" points="-893.8,769.7 -950.5,870.3 -987.6,714.4 -899.5,750.6 	"/>
	<path id="Path-20_1_" class="st21" d="M-868,766.4l32.6,17.7"/>
	<path id="Path-24_1_" class="st19" d="M-823.4,786.1l56.1-8.9"/>
	<path id="Path-25_1_" class="st20" d="M-815.4,865l-12.6-71.7"/>
	
		<ellipse id="Oval-5_1_" transform="matrix(0.5736 -0.8192 0.8192 0.5736 -916.9771 -361.5161)" class="st22" cx="-805.7" cy="700" rx="8.8" ry="8.8"/>
	
		<ellipse id="Oval-5-Copy-3_1_" transform="matrix(0.5736 -0.8192 0.8192 0.5736 -1007.5603 -504.1765)" class="st22" cx="-988" cy="715.7" rx="5.3" ry="5.3"/>
	
		<ellipse id="Oval-5-Copy-2_1_" transform="matrix(0.5736 -0.8192 0.8192 0.5736 -897.4095 -498.8182)" class="st23" cx="-927.8" cy="612.5" rx="8.8" ry="8.8"/>
	
		<ellipse id="Oval-5-Copy-4_1_" transform="matrix(0.5736 -0.8192 0.8192 0.5736 -960.1235 -290.9575)" class="st23" cx="-759.5" cy="776.7" rx="5.8" ry="5.8"/>
</g>
</svg>
